<svg xmlns="http://www.w3.org/2000/svg" viewBox="0 0 43.49 108.46"><defs><style>.a{fill:#ff512e}</style></defs><path class="a" d="M19.19 82.59A12.82 12.82 0 0 0 9.65 81 12.46 12.46 0 0 0 .36 96a13.78 13.78 0 0 0 2.2 4.54 13.62 13.62 0 0 0 5 6 12.75 12.75 0 0 0 9.54 1.63 12.56 12.56 0 0 0 7.67-5.42c.46-1 .93-2 1.4-3a12.51 12.51 0 0 0 .23-6.51c-.59-4.42-3.7-8.24-7.21-10.65ZM28.16 72.94c4-21.25 7.65-41.89 15.1-62.28 1-2.67-1.28-4.72-3.64-5.1a94.78 94.78 0 0 1-18-5.27 3.7 3.7 0 0 0-4.53 1.32 4 4 0 0 0-.73 1.2c-6.81 17-9.32 36.68-12.73 54.63-.85 4.56-4.56 13.7.18 17.37 1.88 1.45 4.48 1.15 6.66 1.13 4.67 0 9.34-.19 14-.37 1.53-.05 3.38-.97 3.69-2.63Z"/></svg>