<svg xmlns="http://www.w3.org/2000/svg" viewBox="0 0 284.57 74.98"><path d="M283 28.31a214.17 214.17 0 0 1-15.78-15.14C263.3 8.93 260 3.47 254.69.67c-3.48-1.81-7.53.25-6.86 3.72 1.12 5.7 6.74 10.84 11 15.44.39.42.79.81 1.18 1.22-2.64-.46-5.34-.84-8.17-1.18-20.71-2.34-44.3-5.17-67.6-7.1s-46.2-2.8-64.46.62a80 80 0 0 0-18.3 5.22c-22.29-6.82-43.73-10.06-61.34-7.36S8.63 22.4.37 37.23c-1.64 3 2.6 5.14 4.57 2.59C13.5 28.67 26 21.9 41.21 19.52s33.16-.45 52 4.68a13.23 13.23 0 0 0-3.74 12.24c2.7 13.89 23.46 28.41 45.64 35.07 21.49 6.45 44 4.49 37.76-10.93-5.74-14.21-31.63-27.3-52.54-35.47 12.86-3.29 28.91-4 45.54-3.22 17.73.82 36.19 2.62 54.34 5 12 1.6 23.48 3.76 34.44 4.91a149.47 149.47 0 0 0-21.91 6.2c-2.79 1.07 0 4.88 3.55 4.59 15.65-1.39 29.66-4 44.29-5.72 4.03-.43 5.3-6.04 2.42-8.56Zm-173.35 1c17.27 5.83 42.27 15.92 48.35 26.18 10.73 18.12-28.34 10.59-45-2.06-13.87-10.64-11.19-19.14-3.35-24.13Z" style="fill:#ff512e"/></svg>